<svg id="Layer_1" data-name="Layer 1" xmlns="http://www.w3.org/2000/svg" viewBox="0 0 465 512.28"><defs><style>.cls-1{fill:#fff;}</style></defs><path class="cls-1" d="M27.59,192.83,37.82,202V9.31A9.31,9.31,0,0,1,47.13,0h279.8a9.3,9.3,0,0,1,7.17,3.37l88.35,92.07a9.23,9.23,0,0,1,2.6,6.44l0,101.57,12.74-11.13a12.93,12.93,0,0,1,8.73-3.37,14.25,14.25,0,0,1,7.34,2.14,19.76,19.76,0,0,1,4.63,3.95c3.64,4.16,6.32,10.57,6.32,15.87V483.57a9.16,9.16,0,0,1,0,3.5v4.29a21,21,0,0,1-20.91,20.92h-423A21,21,0,0,1,0,491.36V210.91c0-5.4,2.77-11.93,6.47-16.08l.65-.65a18.7,18.7,0,0,1,4-3.21l1-.49a13.81,13.81,0,0,1,6.24-1.55,12.92,12.92,0,0,1,8.83,3.46Zm288,4.63c-.8,17-5,30.47-12.57,40.31s-17.83,14.77-30.78,14.77q-18.54,0-24.75-15.74a36.51,36.51,0,0,1-12.11,11.65,29.13,29.13,0,0,1-14.49,3.88q-14.92,0-22.66-12.25T192.4,207.3a87.48,87.48,0,0,1,8.13-30c4.33-8.94,9.81-15.81,16.44-20.7s13.72-7.3,21.22-7.3a49.15,49.15,0,0,1,15.19,2.13q6.6,2.15,15.5,8.9l-5.31,57.5Q261.64,238,275.23,238c6.95,0,12.67-3.7,17.14-11.17s6.88-17.11,7.3-29q1.72-37.65-14.56-57.7t-49-20q-20.06,0-35.54,10t-24.61,29q-9.1,19-10,43.18c-.84,16.41,1.15,30.58,5.87,42.45s12,21,21.78,27.16,21.75,9.28,35.85,9.28a84,84,0,0,0,17.94-2.06,61.29,61.29,0,0,0,15.92-5.51l3.87,14c-4.15,2.72-9.74,4.92-16.82,6.56A92,92,0,0,1,229,296.73c-17.35,0-32.19-3.67-44.62-11s-21.71-17.94-27.92-31.83q-9.58-21.57-8.48-51.63,1.25-28,12.6-50.33t31-34.7q19.68-12.36,44.82-12.36,25.5,0,43.85,11.21c12.21,7.43,21.39,18.18,27.43,32.18s8.7,30.41,7.89,49.19Zm-103.18,9.87q-1.32,13.89,2.44,21A12.75,12.75,0,0,0,227,235.57c3.66,0,7.15-1.6,10.43-4.85a34.51,34.51,0,0,0,8-13.3l4.61-50.3a27.89,27.89,0,0,0-9.91-1.92q-11.37,0-18.5,10.65c-4.78,7.12-7.82,17.59-9.11,31.48ZM335.29,31.42V97h63Zm71.17,84.23H326a9.31,9.31,0,0,1-9.31-9.31V18.62H56.44v200L230.12,373.76l176.34-154V115.65Zm39.75,373.71L285.31,350.17l-49.15,42.94a9.28,9.28,0,0,1-12.28-.07l-47.82-42.72L18.62,486v5.35a2.32,2.32,0,0,0,2.29,2.3h423a2.3,2.3,0,0,0,2.29-2.3v-2ZM299.42,337.85l146.79,127V210.91a4,4,0,0,0-.19-1.13ZM18.62,461.52,162.11,337.86l-143.3-128a3.32,3.32,0,0,0-.19,1.07Z" transform="translate(0 0)"/></svg>