<svg id="Capa_1" data-name="Capa 1" xmlns="http://www.w3.org/2000/svg" viewBox="0 0 438.59 427.82"><defs><style>.cls-1{fill:#fff;}</style></defs><path class="cls-1" d="M409.13,109.21a218.44,218.44,0,0,0-79.8-79.8Q278.95,0,219.27,0T109.21,29.41a218.44,218.44,0,0,0-79.8,79.8Q0,159.64,0,219.27q0,71.67,41.83,128.91T149.89,427.4q7.71,1.44,11.42-2a11.2,11.2,0,0,0,3.69-8.56q0-.85-.14-15.41T164.71,376l-6.56,1.14a85,85,0,0,1-15.85,1,121.19,121.19,0,0,1-19.84-2,44.32,44.32,0,0,1-19.11-8.52A36.17,36.17,0,0,1,90.79,350l-2.86-6.57a71.79,71.79,0,0,0-9-14.56q-6.14-8-12.42-10.84l-2-1.43a20.81,20.81,0,0,1-3.71-3.43,15.88,15.88,0,0,1-2.57-4q-.85-2,1.43-3.29c1.54-.86,4.34-1.28,8.34-1.28l5.71.85q5.72,1.14,14.13,6.85a46.24,46.24,0,0,1,13.85,14.84q6.57,11.71,15.84,17.85t18.7,6.13a80.8,80.8,0,0,0,16.28-1.42,56.83,56.83,0,0,0,12.84-4.28q2.58-19.14,14-29.41A195.93,195.93,0,0,1,150,310.92a116.52,116.52,0,0,1-26.84-11.14,77,77,0,0,1-23-19.13q-9.14-11.41-15-30t-5.79-42.81q0-34.54,22.56-58.81-10.58-26,2-58.24,8.28-2.58,24.56,3.85t23.84,11q7.56,4.58,12.13,7.71a206.29,206.29,0,0,1,109.64,0L285,106.5A153.57,153.57,0,0,1,311.2,93.93q15.14-5.72,23.14-3.14,12.84,32.26,2.28,58.24,22.54,24.27,22.56,58.82,0,24.27-5.86,43t-15.12,30a79.89,79.89,0,0,1-23.13,19A116.93,116.93,0,0,1,288.23,311,195.54,195.54,0,0,1,259,316.06q14.85,12.84,14.85,40.54v60.24a11.39,11.39,0,0,0,3.57,8.56q3.57,3.42,11.27,2,66.26-22,108.07-79.22t41.83-128.91Q438.55,159.65,409.13,109.21Z" transform="translate(0 0)"/></svg>